<svg width="688" height="648" fill="none" xmlns="http://www.w3.org/2000/svg"><g clip-path="url(#clip0)" opacity=".05"><path d="M344-25.667c-190.06 0-344 151.36-344 338.038C0 461.753 98.556 588.43 235.21 633.093c17.2 3.182 23.507-7.281 23.507-16.254 0-8.027-.287-29.297-.43-57.476-95.69 20.382-115.871-45.351-115.871-45.351-15.652-39.015-38.27-49.45-38.27-49.45-31.16-20.955 2.408-20.525 2.408-20.525 34.543 2.35 52.689 34.83 52.689 34.83 30.674 51.686 80.525 36.75 100.19 28.122 3.096-21.873 11.954-36.751 21.787-45.208-76.397-8.456-156.692-37.524-156.692-167.04 0-36.894 13.33-67.052 35.403-90.702-3.87-8.542-15.48-42.914 3.01-89.468 0 0 28.81-9.059 94.6 34.658 27.52-7.511 56.76-11.238 86-11.41 29.24.172 58.48 3.899 86 11.41 65.36-43.717 94.17-34.658 94.17-34.658 18.49 46.554 6.88 80.926 3.44 89.468 21.93 23.65 35.26 53.808 35.26 90.702 0 129.86-80.41 158.44-156.95 166.754 12.04 10.148 23.22 30.874 23.22 62.55 0 45.236-.43 81.586-.43 92.565 0 8.858 6.02 19.436 23.65 16.053C589.53 588.287 688 461.523 688 312.371c0-186.678-154.026-338.038-344-338.038z" fill="url(#paint0_linear)"/></g><defs><linearGradient id="paint0_linear" x1="344" y1="-25.667" x2="344" y2="633.676" gradientUnits="userSpaceOnUse"><stop stop-color="#121214"/><stop offset="1" stop-color="#121214" stop-opacity="0"/></linearGradient><clipPath id="clip0"><path fill="#fff" d="M0-40h688v688H0z"/></clipPath></defs></svg>